<svg width="46" height="13" viewBox="0 0 46 13" fill="none" xmlns="http://www.w3.org/2000/svg">
    <path d="M23.6172 11C23.5772 10.848 23.5492 10.68 23.5332 10.496C23.5252 10.312 23.5212 10.088 23.5212 9.824H23.4612V6.908C23.4612 6.516 23.3612 6.224 23.1612 6.032C22.9692 5.832 22.6612 5.732 22.2372 5.732C21.8292 5.732 21.5012 5.812 21.2532 5.972C21.0132 6.132 20.8732 6.36 20.8332 6.656H19.6452C19.7012 6.08 19.9612 5.62 20.4252 5.276C20.8892 4.932 21.5092 4.76 22.2852 4.76C23.0852 4.76 23.6852 4.948 24.0852 5.324C24.4852 5.692 24.6852 6.236 24.6852 6.956V9.824C24.6852 10.008 24.6972 10.196 24.7212 10.388C24.7452 10.58 24.7812 10.784 24.8292 11H23.6172ZM21.5052 11.12C20.8812 11.12 20.3852 10.968 20.0172 10.664C19.6492 10.352 19.4652 9.932 19.4652 9.404C19.4652 8.86 19.6572 8.432 20.0412 8.12C20.4332 7.8 20.9932 7.584 21.7212 7.472L23.7372 7.148V8.024L21.9132 8.312C21.5052 8.376 21.1972 8.484 20.9892 8.636C20.7892 8.788 20.6892 9.008 20.6892 9.296C20.6892 9.576 20.7812 9.788 20.9652 9.932C21.1572 10.068 21.4332 10.136 21.7932 10.136C22.2732 10.136 22.6692 10.02 22.9812 9.788C23.3012 9.556 23.4612 9.264 23.4612 8.912L23.6172 9.8C23.4732 10.224 23.2172 10.552 22.8492 10.784C22.4812 11.008 22.0332 11.12 21.5052 11.12Z" fill="white"/>
    <path d="M15.419 11V4.88H16.607V6.404H16.667V11H15.419ZM16.667 7.808L16.511 6.356C16.655 5.836 16.903 5.44 17.255 5.168C17.607 4.896 18.027 4.76 18.515 4.76C18.699 4.76 18.827 4.776 18.899 4.808V5.984C18.859 5.968 18.803 5.96 18.731 5.96C18.659 5.952 18.571 5.948 18.467 5.948C17.867 5.948 17.415 6.104 17.111 6.416C16.815 6.728 16.667 7.192 16.667 7.808Z" fill="white"/>
    <path d="M10.9931 11.12C10.3691 11.12 9.82112 10.984 9.34912 10.712C8.87712 10.432 8.50912 10.052 8.24512 9.572C7.98112 9.084 7.84912 8.532 7.84912 7.916C7.84912 7.292 7.98112 6.744 8.24512 6.272C8.51712 5.8 8.88512 5.432 9.34912 5.168C9.82112 4.896 10.3691 4.76 10.9931 4.76C11.6251 4.76 12.1771 4.896 12.6491 5.168C13.1211 5.432 13.4851 5.8 13.7411 6.272C14.0051 6.744 14.1371 7.292 14.1371 7.916C14.1371 8.532 14.0051 9.084 13.7411 9.572C13.4851 10.052 13.1211 10.432 12.6491 10.712C12.1771 10.984 11.6251 11.12 10.9931 11.12ZM10.9931 10.1C11.3691 10.1 11.6931 10.008 11.9651 9.824C12.2451 9.64 12.4651 9.384 12.6251 9.056C12.7851 8.728 12.8651 8.344 12.8651 7.904C12.8651 7.248 12.6891 6.732 12.3371 6.356C11.9931 5.972 11.5451 5.78 10.9931 5.78C10.4491 5.78 10.0011 5.972 9.64912 6.356C9.30512 6.74 9.13312 7.256 9.13312 7.904C9.13312 8.344 9.20912 8.728 9.36112 9.056C9.52112 9.384 9.74112 9.64 10.0211 9.824C10.3091 10.008 10.6331 10.1 10.9931 10.1Z" fill="white"/>
    <path d="M4.02001 11.108C2.98001 11.108 2.14801 10.86 1.52401 10.364C0.900007 9.868 0.536007 9.16 0.432007 8.24H1.66801C1.74001 8.84 1.98001 9.296 2.38801 9.608C2.79601 9.92 3.34801 10.076 4.04401 10.076C4.62801 10.076 5.06801 9.968 5.36401 9.752C5.66801 9.536 5.82001 9.228 5.82001 8.828C5.82001 8.468 5.72001 8.184 5.52001 7.976C5.32001 7.76 5.00401 7.584 4.57201 7.448L3.07201 6.968C2.30401 6.72 1.74001 6.408 1.38001 6.032C1.02001 5.656 0.840007 5.18 0.840007 4.604C0.840007 4.116 0.960007 3.696 1.20001 3.344C1.44801 2.992 1.79201 2.72 2.23201 2.528C2.68001 2.328 3.20001 2.228 3.79201 2.228C4.70401 2.228 5.43201 2.46 5.97601 2.924C6.52801 3.38 6.84401 4.016 6.92401 4.832H5.68801C5.59201 4.288 5.38401 3.892 5.06401 3.644C4.74401 3.388 4.30401 3.26 3.74401 3.26C3.21601 3.26 2.80401 3.364 2.50801 3.572C2.21201 3.78 2.06401 4.072 2.06401 4.448C2.06401 4.752 2.16001 5.008 2.35201 5.216C2.55201 5.416 2.88001 5.588 3.33601 5.732L4.90801 6.236C5.63601 6.468 6.17201 6.784 6.51601 7.184C6.86801 7.584 7.04401 8.088 7.04401 8.696C7.04401 9.464 6.78001 10.06 6.25201 10.484C5.72401 10.9 4.98001 11.108 4.02001 11.108Z" fill="white"/>
    <path d="M43 0C44.6569 1.93277e-07 46 1.34315 46 3V10C46 11.6569 44.6569 13 43 13H31C29.3431 13 28 11.6569 28 10V3C28 1.34315 29.3431 4.83192e-08 31 0H43ZM31.6602 2.36035V7.26758C31.6602 8.50745 31.9597 9.46003 32.5596 10.124C33.1596 10.788 34.044 11.1201 35.2119 11.1201C36.3879 11.1201 37.276 10.788 37.876 10.124C38.4839 9.46007 38.788 8.51214 38.7881 7.28027V2.36035H37.2275V7.50781C37.2275 8.29181 37.0522 8.88046 36.7002 9.27246C36.3482 9.65636 35.8555 9.84766 35.2236 9.84766C34.592 9.84758 34.1 9.6562 33.748 9.27246C33.3961 8.88048 33.2197 8.28805 33.2197 7.49609V2.36035H31.6602ZM40.1934 2.36035V11H41.7529V2.36035H40.1934Z" fill="white"/>
</svg>
